<?xml version="1.0" encoding="utf-8"?>
<!-- Generator: Adobe Illustrator 19.0.0, SVG Export Plug-In . SVG Version: 6.00 Build 0)  -->
<svg version="1.1" id="Layer_1" xmlns="http://www.w3.org/2000/svg" xmlns:xlink="http://www.w3.org/1999/xlink" x="0px" y="0px"
	 viewBox="0 0 100 50" style="enable-background:new 0 0 100 50;" xml:space="preserve">
<style type="text/css">
	.st0{fill:#2CB6B1;}
</style>
<g id="XMLID_4_">
	<ellipse id="XMLID_2_" class="st0" cx="91.4" cy="42.4" rx="8.6" ry="7.6"/>
	<path id="XMLID_1_" class="st0" d="M79,24.6c-3.9-2.4-9.3-1.6-12,1.9l0,0c-0.9,1.1-2.7,1.4-4,0.6l0,0c-1.3-0.8-1.6-2.4-0.7-3.5l0,0
		c1.4-1.7,1.8-3.7,1.4-5.7s-1.6-3.7-3.6-4.9c-3.9-2.4-9.3-1.6-12,1.9L36.3,29.7l0,0c-0.9,1.1-2.7,1.4-4,0.6l0,0
		c-1.3-0.8-1.6-2.4-0.7-3.5l-0.2,0.3l12.1-15.2c1.4-1.7,1.8-3.7,1.4-5.7s-1.6-3.7-3.6-4.9c-3.9-2.4-9.3-1.6-12,1.9L1.6,38.1
		c-1.4,1.7-1.8,3.7-1.4,5.7s1.6,3.7,3.6,4.9c3.9,2.4,9.3,1.6,12-1.9L25,35.1c0.9-1.1,2.7-1.4,4-0.6l0,0c1.3,0.8,1.6,2.4,0.7,3.5l0,0
		l0,0c-1.4,1.7-1.8,3.7-1.4,5.7c0.4,1.9,1.6,3.7,3.6,4.9c3.9,2.4,9.3,1.6,12-1.9l11.9-14.9c0.9-1.1,2.7-1.4,4-0.6l0,0
		c1.3,0.8,1.6,2.3,0.7,3.5L57.8,38c-2.7,3.4-1.8,8.2,2.1,10.6c3.9,2.4,9.3,1.6,12-1.9l9.2-11.6C83.9,31.7,82.9,27,79,24.6z"/>
</g>
</svg>
